<svg width="138" height="49" viewBox="0 0 138 49" fill="none" xmlns="http://www.w3.org/2000/svg">
<path d="M46.7979 24.499L46.7979 0L59.4608 12.2485L72.1237 24.499L59.4608 36.7495L46.7979 49L46.7979 24.499Z" fill="url(#paint0_linear_33_1057)"/>
<path d="M86.4345 30.6709L77.3558 30.6709L75.7958 35.1011L72.0832 35.1011L79.8516 13.387L83.9698 13.387L91.7383 35.1011L87.9944 35.1011L86.4345 30.6709ZM85.4362 27.7695L81.9107 17.6924L78.3541 27.7695L85.4362 27.7695ZM110.809 19.6579C110.247 18.5763 109.467 17.7652 108.469 17.2244C107.471 16.6628 106.316 16.382 105.006 16.382C103.571 16.382 102.292 16.7044 101.168 17.3492C100.045 17.9939 99.1614 18.9091 98.5166 20.0946C97.8927 21.2802 97.5807 22.6529 97.5807 24.2128C97.5807 25.7728 97.8927 27.1559 98.5166 28.3622C99.1614 29.5478 100.045 30.4629 101.168 31.1077C102.292 31.7525 103.571 32.0749 105.006 32.0749C106.94 32.0749 108.511 31.5341 109.717 30.4525C110.923 29.371 111.662 27.9047 111.932 26.0536L103.789 26.0536L103.789 23.2145L115.738 23.2145L115.738 25.9912C115.509 27.6759 114.906 29.2254 113.929 30.6397C112.972 32.0541 111.714 33.1876 110.154 34.0404C108.615 34.8723 106.899 35.2883 105.006 35.2883C102.968 35.2883 101.106 34.8203 99.4214 33.8844C97.7367 32.9276 96.3951 31.6069 95.3968 29.9222C94.4192 28.2374 93.9304 26.3343 93.9304 24.2128C93.9304 22.0913 94.4192 20.1882 95.3968 18.5035C96.3951 16.8188 97.7367 15.5085 99.4214 14.5725C101.127 13.6158 102.988 13.1374 105.006 13.1374C107.315 13.1374 109.363 13.7093 111.152 14.8533C112.962 15.9764 114.272 17.578 115.083 19.6579L110.809 19.6579ZM130.852 23.9633C132.017 24.1712 133.005 24.7848 133.816 25.804C134.627 26.8231 135.033 27.9775 135.033 29.267C135.033 30.3693 134.741 31.3677 134.159 32.2621C133.597 33.1356 132.776 33.8324 131.694 34.3524C130.613 34.8515 129.354 35.1011 127.919 35.1011L119.246 35.1011L119.246 13.4182L127.514 13.4182C128.99 13.4182 130.259 13.6677 131.32 14.1669C132.381 14.6661 133.181 15.3421 133.722 16.1948C134.263 17.0268 134.533 17.9627 134.533 19.0027C134.533 20.2506 134.201 21.2906 133.535 22.1225C132.869 22.9545 131.975 23.5681 130.852 23.9633ZM122.803 22.5281L127.202 22.5281C128.366 22.5281 129.271 22.2681 129.916 21.7482C130.582 21.2074 130.914 20.4378 130.914 19.4395C130.914 18.4619 130.582 17.7028 129.916 17.162C129.271 16.6004 128.366 16.3196 127.202 16.3196L122.803 16.3196L122.803 22.5281ZM127.607 32.1997C128.814 32.1997 129.76 31.9085 130.446 31.3261C131.133 30.7437 131.476 29.9326 131.476 28.8926C131.476 27.8319 131.112 26.9895 130.384 26.3655C129.656 25.7416 128.689 25.4296 127.482 25.4296L122.803 25.4296L122.803 32.1997L127.607 32.1997Z" fill="#054B71"/>
<path d="M19.0569 34.7528L15.6939 34.7528L5.57548 19.4424L5.57548 34.7528L2.21249 34.7528L2.21249 14.2209L5.57548 14.2209L15.6939 29.5018L15.6939 14.2209L19.0569 14.2209L19.0569 34.7528ZM38.3706 26.2273C38.3706 26.837 38.3312 27.3877 38.2526 27.8793L25.8331 27.8793C25.9315 29.1773 26.4133 30.2197 27.2786 31.0063C28.1439 31.793 29.2059 32.1863 30.4646 32.1863C32.2739 32.1863 33.5523 31.4292 34.2996 29.9148L37.9281 29.9148C37.4364 31.4095 36.5416 32.6387 35.2436 33.6023C33.9653 34.5463 32.3723 35.0183 30.4646 35.0183C28.9109 35.0183 27.5146 34.6741 26.2756 33.9858C25.0563 33.2778 24.0926 32.2945 23.3846 31.0358C22.6963 29.7575 22.3521 28.2825 22.3521 26.6108C22.3521 24.9392 22.6865 23.474 23.3551 22.2154C24.0435 20.937 24.9973 19.9537 26.2166 19.2654C27.4556 18.577 28.8716 18.2329 30.4646 18.2329C31.9986 18.2329 33.3654 18.5672 34.5651 19.2359C35.7647 19.9045 36.6989 20.8485 37.3676 22.0679C38.0362 23.2675 38.3706 24.654 38.3706 26.2273ZM34.8601 25.1654C34.8404 23.9264 34.3979 22.9332 33.5326 22.1859C32.6673 21.4385 31.5954 21.0649 30.3171 21.0649C29.1568 21.0649 28.1636 21.4385 27.3376 22.1859C26.5116 22.9135 26.02 23.9067 25.8626 25.1654L34.8601 25.1654ZM48.7306 35.0183C47.1966 35.0183 45.8101 34.6741 44.5711 33.9858C43.3321 33.2778 42.3586 32.2945 41.6506 31.0358C40.9426 29.7575 40.5886 28.2825 40.5886 26.6108C40.5886 24.9589 40.9524 23.4937 41.6801 22.2154C42.4078 20.937 43.4009 19.9537 44.6596 19.2654C45.9182 18.577 47.3244 18.2329 48.8781 18.2329C50.4317 18.2329 51.8379 18.577 53.0965 19.2654C54.3552 19.9537 55.3484 20.937 56.076 22.2154C56.8037 23.4937 57.1675 24.9589 57.1675 26.6108C57.1675 28.2628 56.7939 29.728 56.0465 31.0063C55.2992 32.2847 54.2765 33.2778 52.9785 33.9858C51.7002 34.6741 50.2842 35.0183 48.7306 35.0183ZM48.7306 32.0978C49.5959 32.0978 50.4022 31.8913 51.1495 31.4783C51.9165 31.0653 52.536 30.4458 53.008 29.6198C53.48 28.7938 53.716 27.7908 53.716 26.6108C53.716 25.4308 53.4899 24.4377 53.0375 23.6314C52.5852 22.8054 51.9854 22.1859 51.238 21.7729C50.4907 21.3599 49.6844 21.1534 48.8191 21.1534C47.9537 21.1534 47.1474 21.3599 46.4001 21.7729C45.6724 22.1859 45.0922 22.8054 44.6596 23.6314C44.2269 24.4377 44.0106 25.4308 44.0106 26.6108C44.0106 28.3612 44.4531 29.7182 45.3381 30.6818C46.2427 31.6258 47.3736 32.0978 48.7306 32.0978Z" fill="url(#paint1_linear_33_1057)"/>
<defs>
<linearGradient id="paint0_linear_33_1057" x1="46.7979" y1="24.499" x2="72.1237" y2="24.499" gradientUnits="userSpaceOnUse">
<stop stop-color="#FFF69F" stop-opacity="0"/>
<stop offset="0.528947" stop-color="#FEEF6D" stop-opacity="0.42163"/>
<stop offset="1" stop-color="#FDE628"/>
</linearGradient>
<linearGradient id="paint1_linear_33_1057" x1="29.5" y1="2.75281" x2="29.5" y2="46.7528" gradientUnits="userSpaceOnUse">
<stop stop-color="#182A36"/>
<stop offset="1" stop-color="#2886C1"/>
</linearGradient>
</defs>
</svg>
