<svg width="210" height="76" viewBox="0 0 210 76" fill="none" xmlns="http://www.w3.org/2000/svg">
<path d="M71.6865 37.5286L71.6865 0L91.0841 18.7628L110.482 37.5286L91.0841 56.2944L71.6865 75.0602L71.6865 37.5286Z" fill="url(#paint0_linear_34_903)"/>
<path d="M132.404 47.9004L118.497 47.9004L116.107 54.6867L110.42 54.6867L122.32 21.4241L128.629 21.4241L140.529 54.6867L134.794 54.6867L132.404 47.9004ZM130.923 43.647L125.475 28.0193L119.979 43.647L130.923 43.647ZM143.887 38.0076C143.887 34.7578 144.636 31.8426 146.133 29.2618C147.662 26.6811 149.717 24.6739 152.298 23.2401C154.911 21.7746 157.762 21.0418 160.853 21.0418C164.389 21.0418 167.528 21.9179 170.268 23.6703C173.039 25.3908 175.047 27.844 176.289 31.0301L169.742 31.0301C168.882 29.3733 167.687 28.1308 166.158 27.3024C164.628 26.4422 162.86 26.012 160.853 26.012C158.654 26.012 156.695 26.5059 154.974 27.4936C153.254 28.4812 151.9 29.8831 150.912 31.6992C149.956 33.5152 149.478 35.6181 149.478 38.0076C149.478 40.3972 149.956 42.5159 150.912 44.3638C151.9 46.1799 153.254 47.5818 154.974 48.5695C156.695 49.5572 158.654 50.051 160.853 50.051C163.816 50.051 166.221 49.2226 168.069 47.5659C169.949 45.8772 171.08 43.5992 171.462 40.7317L158.989 40.7317L158.989 36.4783L177.293 36.4783L177.293 40.7317C176.942 43.3124 176.018 45.6861 174.521 47.8526C173.055 50.0191 171.128 51.7555 168.738 53.0618C166.381 54.3363 163.752 54.9735 160.853 54.9735C157.73 54.9735 154.879 54.2566 152.298 52.8229C149.717 51.3573 147.662 49.3341 146.133 46.7534C144.636 44.1727 143.887 41.2574 143.887 38.0076ZM200.445 37.6253C202.229 37.9439 203.742 38.8838 204.985 40.445C206.227 42.0061 206.849 43.7744 206.849 45.7498C206.849 47.4384 206.403 48.9677 205.511 50.3377C204.65 51.6759 203.392 52.7432 201.735 53.5397C200.078 54.3044 198.151 54.6867 195.952 54.6867L182.666 54.6867L182.666 21.4719L195.331 21.4719C197.593 21.4719 199.537 21.8542 201.162 22.6189C202.786 23.3835 204.013 24.419 204.841 25.7253C205.67 26.9997 206.084 28.4335 206.084 30.0265C206.084 31.9381 205.574 33.5312 204.555 34.8056C203.535 36.08 202.165 37.0199 200.445 37.6253ZM188.115 35.5703L194.853 35.5703C196.637 35.5703 198.023 35.1402 199.011 34.2799C200.03 33.4197 200.54 32.2249 200.54 30.6956C200.54 29.1344 200.03 27.9237 199.011 27.0634C198.023 26.1713 196.637 25.7253 194.853 25.7253L188.115 25.7253L188.115 35.5703ZM195.474 50.4333C197.322 50.4333 198.772 49.9713 199.823 49.0474C200.875 48.1234 201.4 46.8331 201.4 45.1763C201.4 43.5514 200.843 42.261 199.728 41.3052C198.613 40.3175 197.131 39.8237 195.283 39.8237L188.115 39.8237L188.115 50.4333L195.474 50.4333Z" fill="#054B71"/>
<path d="M29.1922 54.2169L24.0406 54.2169L8.54075 30.7637L8.54075 54.2169L3.38918 54.2169L3.38918 22.7652L8.54075 22.7652L24.0406 46.1732L24.0406 22.7652L29.1922 22.7652L29.1922 54.2169ZM58.7776 41.0668C58.7776 41.9405 58.7174 42.7539 58.5969 43.507L39.5271 43.507C39.6777 45.5857 40.4158 47.2427 41.7413 48.4778C43.0669 49.6829 44.7088 50.2854 46.667 50.2854C49.4386 50.2854 51.3967 49.1255 52.5415 46.8058L58.0998 46.8058C57.3466 49.0954 55.9759 50.9783 53.9876 52.4545C52.0294 53.9005 49.5892 54.6236 46.667 54.6236C44.287 54.6236 42.148 54.0964 40.2501 53.0419C38.3823 51.9574 36.9061 50.4511 35.8216 48.523C34.7671 46.5648 34.2399 44.3054 34.2399 41.7447C34.2399 39.1839 34.7521 36.9395 35.7764 35.0115C36.8308 33.0533 38.2919 31.547 40.1597 30.4926C42.0577 29.4382 44.2267 28.9109 46.667 28.9109C49.0168 28.9109 51.1105 29.4231 52.9482 30.4474C54.7859 31.4717 56.2169 32.9027 57.2412 34.7403C58.2655 36.578 58.7776 38.6869 58.7776 41.0668ZM53.4001 39.8015C53.37 37.7831 52.6922 36.1864 51.3666 35.0115C50.0712 33.8366 48.4293 33.2491 46.441 33.2491C44.6334 33.2491 43.0819 33.8366 41.7865 35.0115C40.5212 36.1864 39.7831 37.7831 39.5723 39.8015L53.4001 39.8015ZM74.6475 54.6236C72.2977 54.6236 70.1738 54.0964 68.2758 53.0419C66.3779 51.9574 64.8866 50.4511 63.8021 48.523C62.7176 46.5648 62.1753 44.3054 62.1753 41.7447C62.1753 39.2141 62.7326 36.9697 63.8473 35.0115C64.962 33.0533 66.4833 31.547 68.4114 30.4926C70.3395 29.4382 72.4935 28.9109 74.8734 28.9109C77.2534 28.9109 79.4074 29.4382 81.3355 30.4926C83.2636 31.547 84.7849 33.0533 85.8996 35.0115C87.0143 36.9697 87.5716 39.2141 87.5716 41.7447C87.5716 44.2753 86.9992 46.5196 85.8544 48.4778C84.7096 50.436 83.143 51.9574 81.1547 53.0419C79.1965 54.0964 77.0275 54.6236 74.6475 54.6236ZM74.6475 50.2854C75.973 50.2854 77.2082 49.954 78.353 49.2912C79.5279 48.6285 80.4769 47.6644 81.1999 46.3991C81.9229 45.1037 82.2845 43.5522 82.2845 41.7447C82.2845 39.9371 81.938 38.4007 81.2451 37.1354C80.5522 35.8399 79.6334 34.8759 78.4886 34.2433C77.3438 33.5805 76.1086 33.2491 74.7831 33.2491C73.4575 33.2491 72.2374 33.5805 71.1227 34.2433C70.0081 34.8759 69.1043 35.8399 68.4114 37.1354C67.7486 38.4007 67.4172 39.9371 67.4172 41.7447C67.4172 43.5522 67.7336 45.1037 68.3662 46.3991C69.029 47.6946 69.9026 48.6737 70.9872 49.3364C72.1018 49.9691 73.3219 50.2854 74.6475 50.2854Z" fill="url(#paint1_linear_34_903)"/>
<defs>
<linearGradient id="paint0_linear_34_903" x1="71.6865" y1="37.5286" x2="110.482" y2="37.5286" gradientUnits="userSpaceOnUse">
<stop stop-color="#FFF69F" stop-opacity="0"/>
<stop offset="0.528947" stop-color="#FEEF6D" stop-opacity="0.42163"/>
<stop offset="1" stop-color="#FDE628"/>
</linearGradient>
<linearGradient id="paint1_linear_34_903" x1="45" y1="4.21686" x2="45" y2="72.2169" gradientUnits="userSpaceOnUse">
<stop stop-color="#182A36"/>
<stop offset="1" stop-color="#2886C1"/>
</linearGradient>
</defs>
</svg>
